<svg width="30" height="35" viewBox="0 0 30 35" fill="none" xmlns="http://www.w3.org/2000/svg">
<path d="M15 29.0969C9.4875 29.0969 5 24.008 5 17.7567C5 11.5055 9.4875 6.41658 15 6.41658C20.5125 6.41658 25 11.5055 25 17.7567C25 24.008 20.5125 29.0969 15 29.0969ZM15 3.58154C13.3585 3.58154 11.733 3.94819 10.2165 4.66056C8.69989 5.37293 7.3219 6.41707 6.16117 7.73336C3.81696 10.3917 2.5 13.9972 2.5 17.7567C2.5 21.5162 3.81696 25.1217 6.16117 27.7801C7.3219 29.0964 8.69989 30.1405 10.2165 30.8529C11.733 31.5652 13.3585 31.9319 15 31.9319C18.3152 31.9319 21.4946 30.4384 23.8388 27.7801C26.183 25.1217 27.5 21.5162 27.5 17.7567C27.5 15.8952 27.1767 14.0519 26.5485 12.3321C25.9203 10.6123 24.9996 9.04964 23.8388 7.73336C22.6781 6.41707 21.3001 5.37293 19.7835 4.66056C18.267 3.94819 16.6415 3.58154 15 3.58154ZM16.25 10.6691H13.75V16.3392H8.75V19.1742H13.75V24.8443H16.25V19.1742H21.25V16.3392H16.25V10.6691Z" fill="white"/>
</svg>
